# xmcd
#
# Track frame offsets: 
#        150
#        27082
#        49750
#        70427
#        103912
#        132092
#        154175
#        189120
#        212047
#        237490
#        264242
#        303257
#
# Disc length: 4097 seconds
#
# Revision: 4
# Processed by: cddbd v1.5.2PL0 Copyright (c) Steve Scherf et al.
# Submitted via: ExactAudioCopy v0.99pb1
#
DISCID=a10fff0c
DTITLE=Yolanda Adams - The Experience
DYEAR=2001
DGENRE=Gospel
TTITLE0=I Believe I Can Fly (with Gerald Levert)
TTITLE1=Already Alright
TTITLE2=Continual Praise
TTITLE3=Fragile Heart
TTITLE4=What About the Children?
TTITLE5=Ye of Little Faith
TTITLE6=Open My Heart
TTITLE7=That Name
TTITLE8=In the Midst of it All
TTITLE9=Yeah
TTITLE10=I Believe I Can Fly
TTITLE11=Data Track
EXTD=YEAR: 2001 ID3G:  42
EXTT0=
EXTT1=
EXTT2=
EXTT3=
EXTT4=
EXTT5=
EXTT6=
EXTT7=
EXTT8=
EXTT9=
EXTT10=
EXTT11=
PLAYORDER=
